<svg width="100" height="100" viewBox="0 0 100 100" fill="none" xmlns="http://www.w3.org/2000/svg">
<g clip-path="url(#clip0_41_228)">
<path d="M27.9687 56.25L12.5 68.75V18.75C12.5 17.9212 12.8292 17.1263 13.4153 16.5403C14.0013 15.9542 14.7962 15.625 15.625 15.625H65.625C66.4538 15.625 67.2487 15.9542 67.8347 16.5403C68.4208 17.1263 68.75 17.9212 68.75 18.75V53.125C68.75 53.9538 68.4208 54.7487 67.8347 55.3347C67.2487 55.9208 66.4538 56.25 65.625 56.25H27.9687Z" stroke="#31143A" stroke-width="12" stroke-linecap="round" stroke-linejoin="round"/>
<path d="M31.25 56.25V71.875C31.25 72.7038 31.5792 73.4987 32.1653 74.0847C32.7513 74.6708 33.5462 75 34.375 75H72.0312L87.5 87.5V37.5C87.5 36.6712 87.1708 35.8763 86.5847 35.2903C85.9987 34.7042 85.2038 34.375 84.375 34.375H68.75" stroke="#31143A" stroke-width="12" stroke-linecap="round" stroke-linejoin="round"/>
</g>
<defs>
<clipPath id="clip0_41_228">
<rect width="100" height="100" fill="white"/>
</clipPath>
</defs>
</svg>
