<svg width="100" height="100" viewBox="0 0 100 100" fill="none" xmlns="http://www.w3.org/2000/svg">
<g clip-path="url(#clip0_41_208)">
<path d="M68.75 50H87.5C88.3288 50 89.1237 50.3292 89.7097 50.9153C90.2958 51.5013 90.625 52.2962 90.625 53.125V78.125C90.625 78.9538 90.2958 79.7487 89.7097 80.3347C89.1237 80.9208 88.3288 81.25 87.5 81.25H12.5C11.6712 81.25 10.8763 80.9208 10.2903 80.3347C9.70424 79.7487 9.375 78.9538 9.375 78.125V53.125C9.375 52.2962 9.70424 51.5013 10.2903 50.9153C10.8763 50.3292 11.6712 50 12.5 50H31.25" stroke="#31143A" stroke-width="10" stroke-linecap="round" stroke-linejoin="round"/>
<path d="M50 9.375V50" stroke="#31143A" stroke-width="10" stroke-linecap="round" stroke-linejoin="round"/>
<path d="M31.25 31.25L50 50L68.75 31.25" stroke="#31143A" stroke-width="10" stroke-linecap="round" stroke-linejoin="round"/>
<path d="M73.4375 70.3125C76.0263 70.3125 78.125 68.2138 78.125 65.625C78.125 63.0362 76.0263 60.9375 73.4375 60.9375C70.8487 60.9375 68.75 63.0362 68.75 65.625C68.75 68.2138 70.8487 70.3125 73.4375 70.3125Z" fill="#31143A"/>
</g>
<defs>
<clipPath id="clip0_41_208">
<rect width="100" height="100" fill="white"/>
</clipPath>
</defs>
</svg>
