<svg width="100" height="100" viewBox="0 0 100 100" fill="none" xmlns="http://www.w3.org/2000/svg">
<g clip-path="url(#clip0_41_232)">
<path d="M50 70.3125C58.6294 70.3125 65.625 63.3169 65.625 54.6875C65.625 46.0581 58.6294 39.0625 50 39.0625C41.3706 39.0625 34.375 46.0581 34.375 54.6875C34.375 63.3169 41.3706 70.3125 50 70.3125Z" stroke="#31143A" stroke-width="10" stroke-linecap="round" stroke-linejoin="round"/>
<path d="M76.5625 45.3125C80.2021 45.3064 83.7928 46.1509 87.0482 47.7786C90.3036 49.4063 93.1336 51.7722 95.3125 54.6875" stroke="#31143A" stroke-width="10" stroke-linecap="round" stroke-linejoin="round"/>
<path d="M4.6875 54.6875C6.8664 51.7722 9.69641 49.4063 12.9518 47.7786C16.2072 46.1509 19.7979 45.3064 23.4375 45.3125" stroke="#31143A" stroke-width="10" stroke-linecap="round" stroke-linejoin="round"/>
<path d="M27.5 84.375C29.5579 80.1605 32.7581 76.6087 36.7361 74.1242C40.7141 71.6398 45.3099 70.3225 50 70.3225C54.6901 70.3225 59.2859 71.6398 63.2639 74.1242C67.2419 76.6087 70.4421 80.1605 72.5 84.375" stroke="#31143A" stroke-width="10" stroke-linecap="round" stroke-linejoin="round"/>
<path d="M23.4375 45.3125C21.065 45.3149 18.7408 44.6421 16.7365 43.3726C14.7322 42.1032 13.1306 40.2896 12.1187 38.1437C11.1068 35.9978 10.7266 33.6082 11.0223 31.2543C11.3181 28.9003 12.2776 26.6791 13.7889 24.8502C15.3001 23.0213 17.3006 21.6602 19.5567 20.9261C21.8127 20.1919 24.2311 20.1149 26.5293 20.7041C28.8274 21.2934 30.9104 22.5244 32.5349 24.2535C34.1594 25.9826 35.2583 28.1383 35.7031 30.4687" stroke="#31143A" stroke-width="10" stroke-linecap="round" stroke-linejoin="round"/>
<path d="M64.2969 30.4687C64.7417 28.1383 65.8406 25.9826 67.4651 24.2535C69.0896 22.5244 71.1726 21.2934 73.4707 20.7041C75.7689 20.1149 78.1873 20.1919 80.4433 20.9261C82.6994 21.6602 84.6999 23.0213 86.2111 24.8502C87.7224 26.6791 88.6819 28.9003 88.9777 31.2543C89.2734 33.6082 88.8932 35.9978 87.8813 38.1437C86.8694 40.2896 85.2678 42.1032 83.2635 43.3726C81.2592 44.6421 78.935 45.3149 76.5625 45.3125" stroke="#31143A" stroke-width="10" stroke-linecap="round" stroke-linejoin="round"/>
</g>
<defs>
<clipPath id="clip0_41_232">
<rect width="100" height="100" fill="white"/>
</clipPath>
</defs>
</svg>
